<?xml version="1.0"?>
<svg width="190" height="40" xmlns="http://www.w3.org/2000/svg" xmlns:svg="http://www.w3.org/2000/svg">
 <g class="layer">
  <title>Layer 1</title>
  <g fill="none" fill-rule="evenodd" id="svg_1">
   <polygon fill="#ff007f" fill-rule="nonzero" id="svg_7" points="39.48253867030144,12.073275566101074 39.475626438856125,7.340422630310059 29.984386891126633,1.6315784454345703 29.984386891126633,5.2831339836120605 36.24446722865105,9.076312065124512 36.2493996322155,11.983394622802734 33.340853184461594,13.795554161071777 31.35676619410515,12.46367073059082 31.35676619410515,10.207551002502441 28.123630970716476,8.172054290771484 28.123630970716476,12.278457641601562 22.9981732070446,15.172829627990723 22.988308399915695,22.81730079650879 19.36447188258171,24.694828033447266 17.50470206141472,23.353870391845703 17.50470206141472,21.140419006347656 19.706825703382492,19.752248764038086 19.706825703382492,19.734094619750977 19.706825703382492,16.308605194091797 15.743600338697433,18.7490291595459 12.713711231946945,16.935054779052734 9.946257084608078,18.602855682373047 14.270582646131516,21.32744789123535 14.270582646131516,22.999784469604492 11.153871983289719,24.94086456298828 7.974017113447189,22.9598445892334 7.974017113447189,16.36671257019043 12.694958180189133,13.426036834716797 12.69891020655632,10.597039222717285 18.753761738538742,14.18503475189209 23.84271475672722,11.068233489990234 20.73981711268425,9.402247428894043 18.710346668958664,10.662405967712402 14.288345783948898,7.971408843994141 19.27469488978386,5.295844554901123 23.59507605433464,7.626404285430908 23.59507605433464,4.15098762512207 19.27962538599968,1.8231431245803833 9.470705479383469,7.086213111877441 9.463804692029953,11.820880889892578 4.740880936384201,14.764272689819336 4.740880936384201,24.562278747558594 9.463804692029953,27.50567054748535 9.470705479383469,32.2403450012207 18.96193739771843,37.94736862182617 18.96193739771843,34.29854202270508 12.701870411634445,30.505348205566406 12.696938008069992,27.59827423095703 15.605474919080734,25.786113739013672 17.589558094739914,27.117998123168945 17.589558094739914,29.374109268188477 20.822693318128586,31.408714294433594 20.822693318128586,27.302303314208984 26.021156758069992,24.408838272094727 26.079367130994797,16.763460159301758 29.58185049891472,14.885932922363281 31.441610783338547,16.226898193359375 31.441610783338547,18.44034194946289 29.239494770765305,19.82851219177246 29.239494770765305,19.8466739654541 29.239494770765305,23.27306365966797 33.20272681117058,20.83173942565918 36.23262259364128,22.645706176757812 39.00007864832878,20.9779052734375 34.67475363612175,18.25149917602539 34.67475363612175,16.580976486206055 37.792459934949875,14.640804290771484 40.97231528162956,16.621829986572266 40.97231528162956,23.214048385620117 36.252352207899094,26.15563201904297 36.24742743372917,28.983722686767578 30.19256255030632,25.393911361694336 25.103609532117844,28.49073600769043 28.20650526881218,30.15399932861328 30.23597952723503,28.91836166381836 34.65798804163933,31.609352111816406 29.671629399061203,34.2849235534668 25.35124632716179,31.954357147216797 25.35124632716179,35.4279670715332 29.66669699549675,37.75580596923828 39.475626438856125,32.49545669555664 39.48253867030144,27.75988006591797 44.2054543197155,24.81648826599121 44.2054543197155,15.016674041748047 "/>
   <text fill="#ffffff" font-family="Monospace" font-size="24" font-weight="bold" id="svg_8" letter-spacing="3" stroke-width="0" text-anchor="middle" transform="matrix(1 0 0 1 0 0) matrix(0.946306 0 0 0.869033 9.14941 5.96702)" x="115.72" xml:space="preserve" y="16.78">shailesh</text>
   <text fill="#ffffff" font-family="Monospace" font-size="20" font-weight="bold" id="svg_9" letter-spacing="2" stroke-width="0" text-anchor="middle" text-decoration="overline" textLength="0" transform="matrix(0.529905 0 0 0.411961 -15.9909 46.388)" word-spacing="11" x="255.9" xml:space="preserve" y="-27.07">personal website</text>
  </g>
 </g>
</svg>