<?xml version="1.0"?>
<svg width="190" height="40" xmlns="http://www.w3.org/2000/svg" xmlns:svg="http://www.w3.org/2000/svg">
 <g class="layer">
  <title>Layer 1</title>
  <g fill="none" fill-rule="evenodd" id="svg_1">
   <polygon fill="#ff007f" fill-rule="nonzero" id="svg_7" points="106.48254013061523,11.073275566101074 106.47562789916992,6.340422630310059 96.9843864440918,0.6315784454345703 96.9843864440918,4.2831339836120605 103.24446868896484,8.076312065124512 103.2494010925293,10.983394622802734 100.34085464477539,12.795554161071777 98.35676574707031,11.46367073059082 98.35676574707031,9.207551002502441 95.12363052368164,7.172054290771484 95.12363052368164,11.278457641601562 89.99817276000977,14.172829627990723 89.98830795288086,21.81730079650879 86.36447143554688,23.694828033447266 84.50470161437988,22.353870391845703 84.50470161437988,20.140419006347656 86.70682525634766,18.752248764038086 86.70682525634766,18.734094619750977 86.70682525634766,15.308605194091797 82.74360084533691,17.7490291595459 79.71371078491211,15.935054779052734 76.94625663757324,17.602855682373047 81.27058219909668,20.32744789123535 81.27058219909668,21.999784469604492 78.15387153625488,23.94086456298828 74.97401714324951,21.9598445892334 74.97401714324951,15.36671257019043 79.6949577331543,12.426036834716797 79.69890975952148,9.597039222717285 85.7537612915039,13.18503475189209 90.84271430969238,10.068233489990234 87.73981666564941,8.402247428894043 85.71034622192383,9.662405967712402 81.28834533691406,6.971408843994141 86.27469444274902,4.295844554901123 90.5950756072998,6.626404285430908 90.5950756072998,3.1509876251220703 86.27962493896484,0.8231431245803833 76.47070503234863,6.086213111877441 76.46380424499512,10.820880889892578 71.74088096618652,13.764272689819336 71.74088096618652,23.562278747558594 76.46380424499512,26.50567054748535 76.47070503234863,31.240345001220703 85.9619369506836,36.94736862182617 85.9619369506836,33.29854202270508 79.70186996459961,29.505348205566406 79.69693756103516,26.59827423095703 82.6054744720459,24.786113739013672 84.58955764770508,26.117998123168945 84.58955764770508,28.374109268188477 87.82269287109375,30.408714294433594 87.82269287109375,26.302303314208984 93.02115631103516,23.408838272094727 93.07936668395996,15.763460159301758 96.58185005187988,13.885932922363281 98.44161033630371,15.226898193359375 98.44161033630371,17.44034194946289 96.23949432373047,18.82851219177246 96.23949432373047,18.8466739654541 96.23949432373047,22.27306365966797 100.20272827148438,19.83173942565918 103.23262405395508,21.645706176757812 106.00008010864258,19.9779052734375 101.67475509643555,17.25149917602539 101.67475509643555,15.580976486206055 104.79246139526367,13.640804290771484 107.97231674194336,15.621829986572266 107.97231674194336,22.214048385620117 103.25235366821289,25.15563201904297 103.24742889404297,27.983722686767578 97.19256210327148,24.393911361694336 92.10360908508301,27.49073600769043 95.20650482177734,29.15399932861328 97.2359790802002,27.91836166381836 101.65798950195312,30.609352111816406 96.67162895202637,33.2849235534668 92.35124588012695,30.954357147216797 92.35124588012695,34.4279670715332 96.66669654846191,36.75580596923828 106.47562789916992,31.49545669555664 106.48254013061523,26.75988006591797 111.2054557800293,23.81648826599121 111.2054557800293,14.016674041748047 "/>
  </g>
 </g>
</svg>